<svg width="1000" height="669" viewBox="0 0 1000 669" fill="none" xmlns="http://www.w3.org/2000/svg">
<rect width="1000" height="669" fill="#1E1E1E"/>
<g clip-path="url(#clip0_0_1)">
<path d="M0 666.671H1000V0.00411987H0V666.671Z" fill="#94A3B8"/>
<path d="M434.549 416.714L418.403 410.574V406.165L434.549 400.025V404.265L419.997 409.557V407.182L434.549 412.474V416.714ZM435.486 423.633L446.68 391.681H451.395L440.201 423.633H435.486ZM451.992 416.714V412.474L466.543 407.182V409.557L451.992 404.265V400.025L468.137 406.165V410.574L451.992 416.714Z" fill="#262A41"/>
<path d="M621.412 295.723C619.421 339.276 576.609 372.648 544.54 374.664C502.171 377.327 471.889 339.116 467.671 295.723C464.016 258.129 477.365 258.689 487.309 243.02C499.357 224.033 521.809 213.543 544.54 213.543C586.995 213.543 624.087 237.125 621.412 295.723Z" fill="#392B28"/>
<path d="M574.332 370.597V445.189H514.751V370.597H574.332Z" fill="#F3A29C"/>
<path d="M611.468 327.091C622.095 310.963 635.617 310.255 641.264 329.329C646.911 348.405 628.273 364.1 613.1 358.308C597.925 352.516 611.468 327.091 611.468 327.091Z" fill="#F3A29C"/>
<path d="M624.013 327.512C631.132 326.209 634.78 347.42 619.168 348.12L622.379 340.719L619.365 334.563L624.013 327.512Z" fill="#EF7691"/>
<path d="M617.076 351.257C620.845 347.243 621.993 343.672 621.991 340.856C621.987 336.788 619.633 334.361 619.605 334.331L619.365 334.563L619.665 334.709C619.667 334.707 619.944 334.137 620.424 333.273C621.144 331.979 622.316 330.033 623.649 328.428C624.977 326.813 626.489 325.589 627.713 325.611C628.336 325.615 628.929 325.883 629.533 326.637C630.132 327.392 630.703 328.636 631.176 330.495L631.821 330.331C631.333 328.417 630.743 327.095 630.056 326.224C629.373 325.353 628.553 324.94 627.713 324.944C626.617 324.949 625.565 325.588 624.573 326.481C621.612 329.171 619.079 334.4 619.067 334.416L618.964 334.627L619.127 334.795L619.212 334.891C619.624 335.363 621.327 337.533 621.324 340.856C621.323 343.488 620.271 346.875 616.591 350.801L617.076 351.257Z" fill="#DE677E"/>
<path d="M477.117 327.091C466.488 310.963 452.967 310.255 447.32 329.329C441.673 348.405 460.309 364.1 475.484 358.308C490.657 352.516 477.117 327.091 477.117 327.091Z" fill="#F3A29C"/>
<path d="M464.571 327.512C457.452 326.209 453.804 347.42 469.416 348.12L466.205 340.719L469.219 334.563L464.571 327.512Z" fill="#EF7691"/>
<path d="M471.995 350.8C468.313 346.875 467.261 343.488 467.26 340.856C467.26 338.955 467.813 337.436 468.367 336.391C468.644 335.868 468.92 335.465 469.125 335.195C469.228 335.06 469.313 334.957 469.372 334.891L469.457 334.795L469.62 334.627L469.517 334.416C469.513 334.408 468.377 332.076 466.751 329.731C465.937 328.556 465.001 327.379 464.011 326.481C463.019 325.588 461.965 324.949 460.871 324.944C460.031 324.94 459.211 325.353 458.528 326.224C457.84 327.095 457.251 328.417 456.761 330.331L457.408 330.495C457.881 328.636 458.452 327.392 459.051 326.637C459.655 325.883 460.247 325.615 460.871 325.611C461.685 325.605 462.631 326.128 463.563 326.975C464.963 328.24 466.312 330.18 467.3 331.799C467.795 332.608 468.2 333.337 468.481 333.863C468.763 334.389 468.917 334.708 468.919 334.709L469.219 334.563L468.979 334.331C468.951 334.361 466.597 336.787 466.593 340.856C466.591 343.672 467.739 347.243 471.508 351.257L471.995 350.801" fill="#DE677E"/>
<path d="M574.332 372.248V399.996C552.92 429.009 514.751 419.576 514.751 419.576L515.417 372.248H574.332Z" fill="#DE677E"/>
<path d="M544.54 404.041C508.972 404.041 480.14 375.209 480.14 339.643V292.581C480.14 268.559 499.613 249.084 523.637 249.084H565.443C589.467 249.084 608.94 268.559 608.94 292.581V339.643C608.94 375.209 580.108 404.041 544.54 404.041Z" fill="#F3A29C"/>
<path d="M553.783 348.061C553.783 350.616 552.749 352.921 551.076 354.596C549.401 356.269 547.095 357.301 544.54 357.303C541.987 357.301 539.68 356.269 538.007 354.596C536.333 352.921 535.3 350.616 535.3 348.061H533.967C533.967 353.903 538.7 358.635 544.54 358.636C550.381 358.635 555.116 353.903 555.116 348.061H553.783Z" fill="#392B28"/>
<path d="M486.944 251.964C486.944 251.964 475.664 233.267 489.792 216.781C489.792 216.781 499.943 235.576 486.944 251.964Z" fill="#1A1616"/>
<path d="M492.673 247.524C492.673 247.524 476.967 262.693 457.743 252.601C457.743 252.601 473.799 238.512 492.673 247.524Z" fill="#1A1616"/>
<path d="M518.967 324.945C518.967 330.271 516.697 334.587 513.901 334.587C511.103 334.587 508.835 330.271 508.835 324.945C508.835 319.62 511.103 315.304 513.901 315.304C516.697 315.304 518.967 319.62 518.967 324.945Z" fill="#2A2E4B"/>
<path d="M537.179 324.228H534.512C534.511 330.652 531.916 336.443 527.708 340.656C523.496 344.864 517.705 347.459 511.281 347.46C504.857 347.459 499.067 344.864 494.855 340.656C490.647 336.443 488.052 330.652 488.051 324.228C488.052 317.805 490.647 312.015 494.855 307.801C499.067 303.593 504.857 300.999 511.281 300.997C517.705 300.999 523.496 303.593 527.708 307.801C531.916 312.015 534.511 317.805 534.512 324.228H537.179H539.845C539.844 308.452 527.059 295.665 511.281 295.664C495.504 295.665 482.719 308.452 482.717 324.228C482.719 340.005 495.504 352.791 511.281 352.793C527.059 352.792 539.844 340.005 539.845 324.228H537.179Z" fill="white"/>
<path d="M580.247 324.945C580.247 330.271 577.977 334.587 575.18 334.587C572.381 334.587 570.115 330.271 570.115 324.945C570.115 319.62 572.381 315.304 575.18 315.304C577.977 315.304 580.247 319.62 580.247 324.945Z" fill="#2A2E4B"/>
<path d="M603.696 324.228H601.029C601.028 330.652 598.433 336.443 594.225 340.656C590.013 344.864 584.221 347.459 577.799 347.46C571.375 347.459 565.584 344.864 561.372 340.656C557.164 336.443 554.569 330.652 554.568 324.228C554.569 317.805 557.164 312.015 561.372 307.801C565.584 303.593 571.375 300.999 577.799 300.997C584.221 300.999 590.013 303.593 594.225 307.801C598.433 312.015 601.028 317.805 601.029 324.228H603.696H606.363C606.361 308.452 593.575 295.665 577.799 295.664C562.023 295.665 549.236 308.452 549.235 324.228C549.236 340.005 562.023 352.791 577.799 352.793C593.575 352.791 606.361 340.005 606.363 324.228H603.696Z" fill="white"/>
<path d="M488.121 267.464C488.121 267.464 529.035 245.896 556.22 261.528C583.407 277.16 586.465 309.443 613.309 301.088C613.309 301.088 633.699 292.112 611.271 260.848C588.844 229.585 573.499 223.468 544.301 230.264C515.101 237.06 496.104 242.345 488.121 267.464Z" fill="#392B28"/>
<path d="M486.557 267.153C486.557 267.153 500.063 249.247 518.967 244.512C537.869 239.78 558.78 263.032 558.78 263.032C558.78 263.032 510.345 256.127 486.557 267.153Z" fill="#1A1616"/>
<path d="M480.239 289.677C480.239 289.677 484.795 322.911 480.239 343.193C480.239 343.193 473.58 291.66 480.239 289.677Z" fill="#392B28"/>
<path d="M608.472 289.677C608.472 289.677 603.917 322.911 608.472 343.193C608.472 343.193 615.132 291.66 608.472 289.677Z" fill="#392B28"/>
<path d="M525.445 287.084C518.417 283.72 505.919 280.028 494.34 288.276C492.397 289.659 493.136 292.713 495.485 293.119C499.2 293.759 504.529 294.421 510.563 294.384C515.252 294.353 520.803 293.2 524.947 292.133C527.383 291.507 527.715 288.169 525.445 287.084Z" fill="#392B28"/>
<path d="M593.305 287.084C586.279 283.72 573.78 280.028 562.2 288.276C560.259 289.659 560.997 292.713 563.347 293.119C567.061 293.759 572.392 294.421 578.424 294.384C583.113 294.353 588.663 293.2 592.807 292.133C595.244 291.507 595.576 288.169 593.305 287.084Z" fill="#392B28"/>
<path d="M566.324 371.321C565.656 372.513 564.867 373.76 563.787 375.001C560.344 379.145 554.497 383.127 544.483 383.309L544.468 383.355L543.732 383.34L543.704 383.28C534.313 383.095 528.528 379.561 525.037 375.661C523.687 374.197 522.66 372.648 521.923 371.255C520.255 368.052 519.82 365.533 519.82 365.533L568.448 365.625C568.448 365.625 568.047 368.143 566.324 371.321Z" fill="#D82B62"/>
<path d="M566.324 371.321C565.656 372.513 564.867 373.76 563.787 375.001C552.625 370.097 539.199 369.071 525.037 375.661C523.687 374.197 522.66 372.648 521.923 371.255C520.255 368.052 519.82 365.533 519.82 365.533L568.448 365.625C568.448 365.625 568.047 368.143 566.324 371.321Z" fill="#2A2E4B"/>
<path d="M751.241 630.467L315.295 630.919C315.295 630.919 323.428 613.907 335.135 591.36C336.001 589.693 336.893 587.985 337.801 586.252C353.788 555.759 375.295 517.24 392.081 496.347C411.415 472.293 457.095 455.145 488.121 445.772C506.2 440.319 519.295 437.507 519.295 437.507H569.373C569.373 437.507 581.133 440.027 597.747 444.945C628.747 454.105 675.093 472.907 696.587 496.347C701.307 501.492 705.747 507.719 709.908 514.627C736.36 558.585 751.241 630.467 751.241 630.467Z" fill="#212B57"/>
<path d="M315.295 630.919C315.295 630.919 315.348 630.807 315.453 630.587H423.389V630.807L315.295 630.919ZM427.389 630.803V630.587H567.987C568.276 630.587 568.565 630.579 568.848 630.556C568.932 630.55 569.016 630.543 569.099 630.535C576.732 629.838 575.928 618.304 568.271 618.304H485.319C485.319 618.3 485.316 618.292 485.312 618.279C485.301 618.244 485.28 618.171 485.248 618.064L482.881 611.383C605.827 606.433 674.056 543.208 693.485 522.14C697.709 517.559 703.575 514.801 709.803 514.629L709.908 514.627C736.36 558.585 751.241 630.467 751.241 630.467L427.389 630.803Z" fill="#F57C2F"/>
<path d="M537.7 331.299H551.379V325.965H537.7V331.299Z" fill="white"/>
<path d="M597.748 444.94C543.783 504.313 488.121 445.779 488.121 445.779C506.203 440.313 519.3 437.5 519.3 437.5H569.377C569.377 437.5 581.137 440.029 597.748 444.94Z" fill="#F3A29C"/>
<path d="M423.389 631H427.389V563.289H423.389V631Z" fill="#F57819"/>
<path d="M426.963 605.211L408.781 582.031L405.635 584.499L423.816 607.68L426.963 605.211Z" fill="#F57819"/>
<path d="M660.459 631H664.459V563.289H660.459V631Z" fill="#F57819"/>
<path d="M664.032 607.68L680.175 587.097L677.028 584.629L660.884 605.211" fill="#F57819"/>
<path d="M484.409 473.199C484.483 473.248 491.777 478.225 503.213 483.213C514.649 488.197 530.232 493.209 546.937 493.215C555.693 493.215 564.76 491.828 573.645 488.311C582.531 484.796 591.221 479.145 599.201 470.703L596.295 467.955C588.693 475.991 580.525 481.284 572.173 484.592C563.821 487.897 555.275 489.213 546.937 489.215C531.041 489.22 515.925 484.397 504.812 479.547C499.255 477.124 494.7 474.699 491.543 472.885C489.965 471.979 488.736 471.225 487.907 470.701C487.492 470.439 487.177 470.235 486.968 470.097L486.736 469.943L486.665 469.896L484.409 473.199Z" fill="#F57819"/>
<path d="M602.525 563.331L616.787 544.629L616.61 549.719L602.939 531.491H613.296L621.936 543.386L618.03 543.505L626.967 531.491H636.791L623.061 549.541V544.57L637.264 563.331H626.789L617.734 550.666L621.581 551.198L612.586 563.331H602.525Z" fill="white"/>
<path d="M486.569 239.46C501.593 176.315 652.109 183.263 624.101 306.205C615.711 343.032 554.367 222.492 501.424 252.064C497.467 254.275 492.535 253.703 489.225 250.604C486.187 247.757 485.605 243.511 486.569 239.46Z" fill="#392B28"/>
<path d="M569.241 630.507L569.093 630.533C568.735 630.573 568.361 630.587 567.987 630.587H276C272.121 630.587 268.668 628.787 266.415 625.96C264.735 623.865 263.735 621.199 263.735 618.307L263.693 618.173L218.227 489.705C214.747 479.892 222.028 469.585 232.441 469.585H422.015C428.415 469.585 434.107 473.612 436.241 479.639L485.241 618.067C485.295 618.225 485.321 618.307 485.321 618.307H568.267C575.88 618.307 576.721 629.693 569.241 630.507Z" fill="#67AEBB"/>
<path d="M351.488 547.14C356.281 561.08 350.861 575.58 339.38 579.528C327.9 583.476 314.707 575.376 309.913 561.437C305.119 547.497 310.54 532.997 322.021 529.049C333.501 525.101 346.695 533.2 351.488 547.14Z" fill="white"/>
<path d="M568.271 618.304H485.319C485.319 618.304 485.296 618.22 485.248 618.064L436.24 479.636C434.104 473.611 428.415 469.589 422.017 469.589H415.679C415.679 469.589 429.843 470.515 433.384 483.189C436.924 495.852 485.319 630.319 485.319 630.319L488.896 630.583H567.981C568.365 630.583 568.739 630.571 569.099 630.535C576.732 629.838 575.928 618.304 568.271 618.304Z" fill="#3B719A"/>
<path d="M567.987 630.587H276C272.121 630.587 268.668 628.787 266.415 625.96C273.577 626.575 280.415 626.871 286.939 626.871C428.668 626.871 423.281 487.719 422.141 471.184C426.369 472.864 431.453 476.281 433.384 483.189C436.924 495.852 485.319 630.319 485.319 630.319L488.896 630.583H567.981C568.277 630.583 568.567 630.576 568.848 630.556C568.565 630.579 568.276 630.587 567.987 630.587ZM485.319 618.304C485.319 618.304 485.317 618.295 485.312 618.279C485.316 618.292 485.319 618.3 485.32 618.304H485.319ZM435.42 477.741C435.419 477.739 435.417 477.737 435.416 477.735C435.417 477.737 435.419 477.739 435.42 477.741ZM435.411 477.725C432.845 472.776 427.711 469.589 422.017 469.589H422.015C422.015 469.587 422.015 469.585 422.015 469.585C427.709 469.585 432.845 472.775 435.411 477.725Z" fill="#58A5B0"/>
<path d="M567.981 630.583H488.896L485.319 630.319C485.319 630.319 436.924 495.852 433.384 483.189C431.453 476.281 426.369 472.864 422.141 471.184C422.073 470.191 422.02 469.641 422.015 469.589H422.017C427.711 469.589 432.845 472.776 435.411 477.725C435.413 477.728 435.415 477.732 435.416 477.735C435.417 477.737 435.419 477.739 435.42 477.741C435.733 478.348 436.008 478.981 436.241 479.639L485.241 618.067C485.276 618.172 485.3 618.244 485.312 618.279C485.317 618.295 485.319 618.304 485.319 618.304C485.321 618.305 485.321 618.307 485.321 618.307H566.961C567.841 622.347 568.615 626.413 569.241 630.507L569.093 630.533C569.012 630.542 568.931 630.549 568.848 630.556C568.567 630.576 568.277 630.583 567.981 630.583Z" fill="#3D809B"/>
<path d="M222.044 545.779V550.077C214.276 550.965 212.376 557.533 212.376 565.531V568.173C212.376 576.169 214.276 582.738 222.044 583.628V587.904H73.524C67.4297 587.904 62.4921 582.967 62.4921 576.871V556.832C62.4921 550.737 67.4297 545.779 73.524 545.779H222.044Z" fill="#3B719A"/>
<path d="M219.729 579.226C220.619 581.333 218.987 583.628 216.713 583.628L74.7844 583.731V549.973L216.713 550.077C217.54 550.077 218.284 550.385 218.841 550.881C219.833 551.708 220.288 553.135 219.729 554.476C218.552 557.287 218.593 561.192 218.593 565.531V568.173C218.593 572.512 218.552 576.417 219.729 579.226Z" fill="white"/>
<path d="M82.0973 569.703V549.979L192.004 550.059C191.935 550.272 193.081 551.15 194.817 552.352C178.52 553.464 156.32 555.199 135.897 557.535H82.3391V560.579H113.045C105.633 561.745 99.0484 563.016 93.8495 564.388H82.3391V567.429H85.1271C83.6797 568.164 82.6484 568.923 82.0973 569.703Z" fill="#CAEDEF"/>
<path d="M82.0973 587.912H69.6177C65.6828 587.912 62.4927 584.721 62.4927 580.787V552.915C62.4927 548.979 65.6828 545.789 69.6177 545.789H82.0973V587.912Z" fill="#3B719A"/>
<path d="M219.976 580.44C219.977 580.064 219.909 579.68 219.76 579.301C219.909 579.68 219.977 580.064 219.976 580.44Z" fill="#4A697F"/>
<path d="M188.38 583.647C196.597 582.712 201.628 579.655 204.703 576.147H218.593V573.104H206.868C208.004 571.113 208.655 569.128 209.025 567.429H218.593V568.173C218.593 568.461 218.593 568.748 218.593 569.032C218.593 573.025 218.631 576.604 219.729 579.226C219.74 579.252 219.751 579.276 219.76 579.301C219.909 579.68 219.977 580.064 219.976 580.44C219.971 582.126 218.551 583.626 216.713 583.626L188.38 583.647Z" fill="#CAEDEF"/>
<path d="M218.593 564.388H209.459C209.533 563.273 209.481 562.595 209.481 562.595C209.54 562.387 208.588 561.628 207.103 560.579H218.593V557.535H202.601C199.887 555.74 196.919 553.808 194.817 552.352C208.568 551.415 218.111 550.92 218.841 550.881C219.539 551.462 219.971 552.34 219.972 553.277C219.972 553.672 219.896 554.079 219.729 554.476C219.665 554.631 219.604 554.787 219.547 554.947C218.649 557.456 218.596 560.742 218.593 564.388Z" fill="#CAEDEF"/>
<path d="M216.713 550.077L192.004 550.059C192.004 550.057 192.005 550.057 192.005 550.056L216.713 550.077Z" fill="#5799B5"/>
<path d="M194.817 552.352C193.081 551.15 191.935 550.272 192.004 550.059L216.713 550.077C217.54 550.077 218.284 550.385 218.841 550.881C218.111 550.92 208.568 551.415 194.817 552.352Z" fill="#AEE4E9"/>
<path d="M209.025 567.429H85.1271C87.224 566.367 90.1959 565.352 93.8495 564.388H209.459C209.404 565.201 209.283 566.247 209.025 567.429ZM218.593 564.671C218.593 564.576 218.593 564.483 218.593 564.388C218.593 564.483 218.593 564.576 218.593 564.671Z" fill="#CAEDEF"/>
<path d="M85.127 567.429H82.3391V564.388H93.8494C90.1958 565.352 87.224 566.367 85.127 567.429Z" fill="#AEE4E9"/>
<path d="M218.593 567.429H209.025C209.283 566.247 209.404 565.201 209.459 564.388H218.593C218.593 564.483 218.593 564.576 218.593 564.671C218.593 564.956 218.593 565.242 218.593 565.531V567.429Z" fill="#AEE4E9"/>
<path d="M207.103 560.579H113.045C120.073 559.471 127.847 558.456 135.897 557.535H202.601C204.288 558.65 205.876 559.713 207.103 560.579Z" fill="#CAEDEF"/>
<path d="M113.045 560.579H82.3391V557.535H135.897C127.847 558.456 120.073 559.471 113.045 560.579Z" fill="#AEE4E9"/>
<path d="M218.593 560.579H207.103C205.876 559.713 204.288 558.65 202.601 557.535H218.593V560.579Z" fill="#AEE4E9"/>
<path d="M204.703 576.147H82.3391V573.104H206.868C206.284 574.129 205.572 575.156 204.703 576.147Z" fill="#CAEDEF"/>
<path d="M218.593 576.147H204.703C205.572 575.156 206.284 574.129 206.868 573.104H218.593V576.147Z" fill="#AEE4E9"/>
<path d="M174.705 577.426L167.461 570.201L160.216 577.426V557.535H174.705V577.426Z" fill="#E72B61"/>
<path d="M237.931 587.76V592.057C230.163 592.945 228.261 599.516 228.261 607.511V610.155C228.261 618.149 230.163 624.72 237.931 625.608V629.885H89.4109C83.3167 629.885 78.3787 624.947 78.3787 618.854V598.812C78.3787 592.719 83.3167 587.76 89.4109 587.76H237.931Z" fill="#E72B61"/>
<path d="M235.616 621.208C236.505 623.315 234.873 625.608 232.6 625.608L90.6703 625.711V591.955L232.6 592.057C233.427 592.057 234.171 592.367 234.728 592.864C235.72 593.691 236.175 595.115 235.616 596.459C234.439 599.268 234.48 603.172 234.48 607.511V610.155C234.48 614.493 234.439 618.399 235.616 621.208Z" fill="white"/>
<path d="M97.9839 611.685V591.96L207.891 592.04C207.823 592.254 208.969 593.132 210.704 594.335C194.407 595.445 172.208 597.18 151.783 599.517H98.226V602.56H128.928C121.516 603.728 114.932 604.999 109.733 606.369H98.226V609.412H101.011C99.564 610.145 98.5355 610.903 97.9844 611.684C97.9844 611.684 97.9839 611.684 97.9839 611.685Z" fill="#CAEDEF"/>
<path d="M97.9839 629.893H85.5047C81.5688 629.893 78.3797 626.703 78.3797 622.768V594.895C78.3797 590.96 81.5688 587.769 85.5047 587.769H97.9839V629.893Z" fill="#E72B61"/>
<path d="M204.267 625.629C204.268 625.629 204.269 625.629 204.271 625.628L232.6 625.608C233.432 625.608 234.177 625.301 234.745 624.809C234.177 625.301 233.432 625.608 232.6 625.608L204.267 625.629Z" fill="#C36493"/>
<path d="M204.271 625.628C212.487 624.693 217.515 621.635 220.589 618.129H234.48V615.087H222.755C223.891 613.095 224.541 611.111 224.911 609.412H234.48V610.155C234.48 610.443 234.48 610.729 234.48 611.013C234.48 615.007 234.517 618.585 235.616 621.208C235.787 621.612 235.864 622.021 235.863 622.421C235.86 623.345 235.432 624.213 234.745 624.809C234.177 625.301 233.432 625.608 232.6 625.608L204.271 625.628Z" fill="#CAEDEF"/>
<path d="M234.48 606.369H225.345C225.42 605.255 225.368 604.577 225.368 604.577C225.427 604.368 224.475 603.609 222.989 602.56H234.48V599.517H218.488C215.773 597.721 212.807 595.791 210.704 594.335C224.449 593.396 233.997 592.903 234.728 592.864C235.425 593.445 235.857 594.321 235.859 595.259C235.859 595.654 235.783 596.06 235.616 596.459C234.543 599.02 234.483 602.489 234.48 606.369Z" fill="#CAEDEF"/>
<path d="M232.6 592.057L207.891 592.04C207.891 592.038 207.892 592.037 207.892 592.036L232.6 592.057Z" fill="#C36493"/>
<path d="M210.704 594.335C208.969 593.132 207.823 592.254 207.891 592.04L232.6 592.057C233.427 592.057 234.171 592.367 234.728 592.864C233.997 592.903 224.449 593.396 210.704 594.335Z" fill="#AEE4E9"/>
<path d="M224.911 609.412H101.011C103.108 608.348 106.079 607.333 109.733 606.369H225.345C225.291 607.183 225.169 608.228 224.911 609.412Z" fill="#CAEDEF"/>
<path d="M101.011 609.412H98.226V606.369H109.733C106.079 607.333 103.108 608.348 101.011 609.412Z" fill="#AEE4E9"/>
<path d="M234.48 609.412H224.911C225.169 608.228 225.291 607.183 225.345 606.369H234.48C234.48 606.464 234.48 606.557 234.48 606.652C234.48 606.936 234.48 607.223 234.48 607.511V609.412Z" fill="#AEE4E9"/>
<path d="M222.989 602.56H128.928C135.956 601.454 143.731 600.438 151.783 599.517H218.488C220.175 600.632 221.763 601.695 222.989 602.56Z" fill="#CAEDEF"/>
<path d="M128.928 602.56H98.226V599.517H151.783C143.731 600.438 135.956 601.454 128.928 602.56Z" fill="#AEE4E9"/>
<path d="M234.48 602.56H222.989C221.763 601.695 220.175 600.632 218.488 599.517H234.48V602.56Z" fill="#AEE4E9"/>
<path d="M220.589 618.129H98.226V615.087H222.755C222.171 616.111 221.459 617.137 220.589 618.129Z" fill="#CAEDEF"/>
<path d="M234.48 618.129H220.589C221.459 617.137 222.171 616.111 222.755 615.087H234.48V618.129Z" fill="#AEE4E9"/>
<path d="M219.576 622.056L211.921 614.421L204.267 622.056V601.037H219.576V622.056Z" fill="#E72B61"/>
<path d="M957.133 648.187V651.265C957.133 660.68 949.493 668.305 940.08 668.305H68.0271C60.0948 668.305 53.4276 662.892 51.5208 655.573L51.5073 655.532C51.1609 654.159 50.974 652.733 50.974 651.265V648.187C50.974 638.772 58.6011 631.145 68.0271 631.145H940.08C949.493 631.145 957.133 638.772 957.133 648.187Z" fill="#3C5282"/>
<path d="M940.08 668.305H68.0271C60.0948 668.305 53.4276 662.892 51.5208 655.573L51.5073 655.532C51.1479 652.8 50.974 651.265 50.974 651.265C142.155 654.443 230.319 655.737 313.3 655.737C675.351 655.737 940.08 631.145 940.08 631.145C949.493 631.145 957.133 638.772 957.133 648.187V651.265C957.133 658.069 953.144 663.938 947.379 666.671C945.165 667.72 942.691 668.305 940.08 668.305Z" fill="#2D3A5D"/>
<path d="M912.393 191.663C906.316 191.663 901.389 186.737 901.389 180.659C901.389 174.581 906.316 169.655 912.393 169.655C918.472 169.655 923.397 174.581 923.397 180.659C923.397 186.737 918.472 191.663 912.393 191.663ZM935.387 180.977L935.4 180.659L935.387 180.353C936.981 179.619 938.591 178.772 940.173 177.745C941.865 176.58 943.587 175.233 945.183 173.693L944.836 172.333C944.503 170.793 943.907 169.309 943.364 167.824C943.06 167.103 942.699 166.395 942.352 165.687C942.032 164.951 941.644 164.272 941.215 163.605L940.492 162.412C938.313 162.425 936.108 162.703 934.095 163.079C932.279 163.452 930.516 163.993 928.879 164.619L928.435 164.175C929.045 162.523 929.6 160.775 929.961 158.957C930.349 156.945 930.627 154.739 930.64 152.56L929.448 151.839C928.781 151.408 928.087 151.02 927.365 150.7C926.657 150.353 925.951 149.993 925.215 149.688C923.731 149.147 922.259 148.549 920.719 148.217L919.36 147.869C917.82 149.465 916.473 151.172 915.307 152.879C914.281 154.448 913.435 156.057 912.699 157.667L912.393 157.639L912.075 157.667C911.353 156.057 910.492 154.448 909.465 152.879C908.313 151.172 906.955 149.465 905.428 147.869L904.068 148.217C902.515 148.549 901.043 149.147 899.559 149.688C898.837 149.993 898.129 150.353 897.408 150.7C896.687 151.02 896.007 151.408 895.325 151.839L894.133 152.56C894.16 154.739 894.437 156.945 894.812 158.957C895.187 160.775 895.728 162.523 896.353 164.175C896.2 164.327 896.047 164.465 895.909 164.619C894.257 163.993 892.509 163.452 890.692 163.079C888.68 162.703 886.46 162.425 884.295 162.412L883.559 163.605C883.143 164.272 882.753 164.951 882.421 165.687C882.088 166.395 881.728 167.103 881.421 167.824C880.867 169.309 880.284 170.793 879.952 172.333L879.604 173.693C881.2 175.233 882.908 176.58 884.613 177.745C886.181 178.772 887.792 179.619 889.387 180.353L889.373 180.659L889.387 180.977C887.792 181.699 886.181 182.56 884.613 183.588C882.908 184.739 881.2 186.099 879.604 187.625L879.952 188.985C880.284 190.525 880.867 192.009 881.421 193.495C881.728 194.216 882.088 194.924 882.421 195.645C882.753 196.367 883.143 197.047 883.559 197.713L884.295 198.907C886.46 198.893 888.68 198.615 890.692 198.24C892.509 197.865 894.257 197.324 895.909 196.7C896.047 196.852 896.2 197.005 896.353 197.144C895.728 198.795 895.187 200.544 894.812 202.361C894.437 204.373 894.16 206.593 894.133 208.759L895.325 209.493C896.007 209.909 896.687 210.299 897.408 210.617C898.129 210.964 898.837 211.325 899.559 211.631C901.043 212.185 902.515 212.768 904.068 213.101L905.428 213.448C906.955 211.852 908.313 210.145 909.465 208.439C910.492 206.871 911.353 205.261 912.075 203.652L912.393 203.68L912.699 203.652C913.435 205.261 914.281 206.871 915.307 208.439C916.473 210.145 917.82 211.852 919.36 213.448L920.719 213.101C922.259 212.768 923.731 212.185 925.215 211.631C925.951 211.325 926.657 210.964 927.365 210.617C928.087 210.299 928.781 209.909 929.448 209.493L930.64 208.759C930.627 206.593 930.349 204.373 929.961 202.361C929.6 200.544 929.045 198.795 928.435 197.144C928.587 197.005 928.727 196.852 928.879 196.7C930.516 197.324 932.279 197.865 934.095 198.24C936.108 198.615 938.313 198.893 940.492 198.907L941.215 197.713C941.644 197.047 942.032 196.367 942.352 195.645C942.699 194.924 943.06 194.216 943.364 193.495C943.907 192.009 944.503 190.525 944.836 188.985L945.183 187.625C943.587 186.099 941.865 184.739 940.173 183.588C938.591 182.56 936.981 181.699 935.387 180.977Z" fill="#F78F45"/>
<path d="M880.851 196.976H875.517V198.309H880.851V196.976ZM870.184 196.976H864.851V198.309H870.184V196.976ZM859.517 196.976H854.184V198.309H859.517V196.976ZM848.851 196.976H843.517V198.309H848.851V196.976ZM838.184 196.976H832.851V198.309H838.184V196.976ZM827.517 196.976H822.184V198.309H827.517V196.976ZM816.851 196.976H811.517V198.309H816.851V196.976ZM805.933 203.392H807.267V198.059H805.933V203.392ZM805.933 214.059H807.267V208.725H805.933V214.059ZM805.933 224.725H807.267V219.392H805.933V224.725ZM805.933 235.392H807.267V230.059H805.933V235.392ZM805.933 246.059H807.267V240.725H805.933V246.059ZM805.933 256.725H807.267V251.392H805.933V256.725ZM805.933 267.392H807.267V262.059H805.933V267.392ZM808.561 271.432H813.895V270.099H808.561V271.432ZM819.228 271.432H824.561V270.099H819.228V271.432Z" fill="#F36241"/>
<path d="M869.805 317.199H828.985V309.903H869.805V317.199Z" fill="white"/>
<path d="M891.743 330.696H828.985V323.4H891.743V330.696Z" fill="white"/>
<path d="M850.36 344.193H828.985V336.897H850.36V344.193Z" fill="white"/>
<path d="M880.459 344.193H859.084V336.897H880.459V344.193Z" fill="#F78F45"/>
<path d="M918.801 344.193H888.107V336.897H918.801V344.193Z" fill="#F78F45"/>
<path d="M918.801 330.696H900.163V323.4H918.801V330.696Z" fill="#F78F45"/>
<path d="M918.801 317.199H877.981V309.903H918.801V317.199Z" fill="#F78F45"/>
<path d="M932.393 343.972H933.753V262.659H932.393V343.972Z" fill="white"/>
<path d="M871.593 273.148H829.619V265.645H871.593V273.148Z" fill="white"/>
<path d="M894.152 287.028H829.619V279.525H894.152V287.028Z" fill="white"/>
<path d="M851.599 300.907H829.619V293.404H851.599V300.907Z" fill="white"/>
<path d="M882.549 300.907H860.569V293.404H882.549V300.907Z" fill="#F78F45"/>
<path d="M921.976 300.907H890.415V293.404H921.976V300.907Z" fill="#F78F45"/>
<path d="M921.976 287.028H902.809V279.525H921.976V287.028Z" fill="#F78F45"/>
<path d="M921.976 273.148H880.001V265.645H921.976V273.148Z" fill="#F78F45"/>
<path d="M776.94 363.193H656.152V125.832H776.94V363.193Z" fill="#3F436D"/>
<path d="M760.599 185.947H669.912V176.315H760.599V185.947Z" fill="white"/>
<path d="M729.933 207.275H669.912V197.643H729.933V207.275Z" fill="white"/>
<path d="M760.599 207.275H738.848V197.643H760.599V207.275Z" fill="#F78F45"/>
<path d="M760.599 228.603H704.401V218.971H760.599V228.603Z" fill="#F78F45"/>
<path d="M696.231 228.603H669.912V218.971H696.231V228.603Z" fill="white"/>
<path d="M717.848 249.931H669.912V240.299H717.848V249.931Z" fill="white"/>
<path d="M760.599 249.931H725.231V240.299H760.599V249.931Z" fill="#F78F45"/>
<path d="M760.599 271.259H696.231V261.627H760.599V271.259Z" fill="#F78F45"/>
<path d="M689.369 271.259H669.912V261.627H689.369V271.259Z" fill="white"/>
<path d="M708.827 292.587H669.912V282.955H708.827V292.587Z" fill="white"/>
<path d="M760.599 292.587H715.255V282.955H760.599V292.587Z" fill="#F78F45"/>
<path d="M757.92 339.797V342.507L747.995 346.281V343.675L754.939 341.151L747.995 338.608V336.023L757.92 339.797Z" fill="#F78F45"/>
<path d="M729.7 336.023V338.608L722.756 341.151L729.7 343.675V346.281L719.775 342.507V339.797L729.7 336.023Z" fill="#F78F45"/>
<path d="M741.435 328.715H744.54L737.168 349.756H734.064L741.435 328.715Z" fill="#F78F45"/>
<path d="M712.345 154.559V158.111L699.336 163.057V159.641L708.436 156.335L699.336 153V149.611L712.345 154.559Z" fill="#F78F45"/>
<path d="M688.423 149.611V153L679.323 156.335L688.423 159.641V163.057L675.416 158.111V154.559L688.423 149.611Z" fill="#F78F45"/>
<path d="M670.767 88.7261H674.747V105.924H670.767V88.7261ZM662.954 105.924H658.974V88.7261H662.954V105.924ZM671.062 98.8731H662.659V95.5071H671.062V98.8731ZM682.379 105.924V91.9692H676.875V88.7261H691.862V91.9692H686.359V105.924H682.379ZM694.004 105.924V88.7261H697.296L704.618 100.863H702.873L710.072 88.7261H713.34L713.389 105.924H709.654L709.63 94.4507H710.318L704.568 104.106H702.775L696.903 94.4507H697.738V105.924H694.004ZM717.469 105.924V88.7261H721.449V102.681H730.073V105.924H717.469Z" fill="white"/>
<path d="M84.5312 409.845C73.9344 414.572 61.4683 409.796 56.7421 399.199C53.9307 392.896 54.4828 385.932 57.6219 380.333L57.6917 380.204C59.8312 376.44 63.1401 373.304 67.3896 371.409C68.1844 371.055 68.9948 370.753 69.8093 370.508L70.0656 370.427C74.2751 369.195 78.6412 369.349 82.6104 370.676L82.6588 370.689C86.0593 371.833 89.162 373.84 91.6156 376.568C93.0495 378.157 94.2609 379.999 95.1787 382.056C95.7484 383.336 96.1787 384.641 96.4771 385.956C98.6661 395.549 93.8484 405.691 84.5312 409.845ZM97.224 368.997C94.7167 366.539 91.8208 364.551 88.6817 363.108L88.5098 363.028C84.0854 361.023 79.2 360.073 74.2656 360.345C70.8912 360.524 67.4969 361.284 64.2167 362.661C64.0136 362.748 63.8073 362.836 63.6057 362.925C57.724 365.548 53.0839 369.825 49.9964 374.971C45.0579 383.177 44.0683 393.587 48.2584 402.981C55.0703 418.255 73.0412 425.141 88.3145 418.328C102.316 412.085 109.267 396.467 105.083 382.143C104.704 380.837 104.229 379.545 103.661 378.272C102.068 374.699 99.8645 371.584 97.224 368.997Z" fill="#5C5E94"/>
<path d="M88.6817 363.108C91.8208 364.551 94.7167 366.539 97.224 368.997C99.8645 371.584 102.068 374.699 103.661 378.272C104.229 379.545 104.704 380.837 105.083 382.143L96.4771 385.956C96.1787 384.641 95.7484 383.336 95.1787 382.056C94.261 379.999 93.0495 378.157 91.6156 376.568C89.162 373.84 86.0593 371.833 82.6588 370.689L82.6104 370.676L88.5099 363.028" fill="#F78F45"/>
<path d="M88.6817 363.108L82.6588 370.689L88.6817 363.108Z" fill="#F78F45"/>
<path d="M82.6588 370.689L82.6104 370.676C78.6412 369.349 74.2751 369.195 70.0656 370.427L69.8093 370.508L64.2167 362.661C67.4969 361.284 70.8912 360.524 74.2656 360.345C79.2 360.073 84.0855 361.023 88.5099 363.028" fill="#D82B62"/>
<path d="M77.7125 423.624H79.0459V420.957H77.7125V423.624Z" fill="#F36241"/>
<path d="M77.7125 433.829H79.0459V428.727H77.7125V433.829ZM77.7125 444.036H79.0459V438.933H77.7125V444.036ZM77.7125 454.243H79.0459V449.14H77.7125V454.243ZM77.7125 464.449H79.0459V459.345H77.7125V464.449Z" fill="#F36241"/>
<path d="M77.7125 469.553V472.887H81.0459V471.553H79.0459V469.553H77.7125Z" fill="#F36241"/>
<path d="M86.5323 472.887H92.0198V471.553H86.5323V472.887ZM97.5073 472.887H102.995V471.553H97.5073V472.887ZM108.482 472.887H113.97V471.553H108.482V472.887ZM119.457 472.887H124.945V471.553H119.457V472.887ZM130.432 472.887H135.92V471.553H130.432V472.887ZM141.407 472.887H146.895V471.553H141.407V472.887ZM152.383 472.887H157.869V471.553H152.383V472.887Z" fill="#F36241"/>
<path d="M163.357 472.887H166.691V469.553H165.357V471.553H163.357V472.887Z" fill="#F36241"/>
<path d="M166.691 459.167H165.357V464.36H166.691V459.167ZM166.691 448.78H165.357V453.973H166.691V448.78ZM166.691 438.395H165.357V443.588H166.691V438.395ZM166.691 428.008H165.357V433.202H166.691V428.008Z" fill="#F36241"/>
<path d="M165.357 422.815H166.691V420.148H165.357V422.815Z" fill="#F36241"/>
<path d="M391.167 417.624H134.037V111.067H391.167V417.624Z" fill="#3F436D"/>
<path d="M391.167 135.041H134.037V96.1333H391.167V135.041Z" fill="#5C5E94"/>
<path d="M361.413 396.537V399.063L352.167 402.579V400.151L358.636 397.8L352.167 395.429V393.021L361.413 396.537Z" fill="#F78F45"/>
<path d="M335.124 393.021V395.429L328.656 397.8L335.124 400.151V402.579L325.877 399.063V396.537L335.124 393.021Z" fill="#F78F45"/>
<path d="M339.188 405.001L346.057 385.394H348.95L342.081 405.001H339.188Z" fill="#F78F45"/>
<path d="M194.967 159.844V162.995L183.436 167.379V164.351L191.503 161.42L183.436 158.464V155.46L194.967 159.844Z" fill="#F78F45"/>
<path d="M173.763 155.46V158.464L165.695 161.42L173.763 164.351V167.379L162.231 162.995V159.844L173.763 155.46Z" fill="#F78F45"/>
<path d="M154.272 123.376L150.045 110.455H153.146L156.819 121.9H155.268L159.108 110.455H161.877L165.568 121.9H164.073L167.839 110.455H170.7L166.473 123.376H163.261L159.994 113.335H160.843L157.483 123.376H154.272ZM175.119 115.661H181.34V117.986H175.119V115.661ZM175.341 120.977H182.373V123.376H172.369V110.455H182.133V112.855H175.341V120.977ZM184.753 123.376V110.455H191.065C192.69 110.455 193.908 110.763 194.72 111.378C195.545 111.994 195.957 112.806 195.957 113.815C195.957 114.492 195.791 115.082 195.459 115.587C195.126 116.079 194.671 116.461 194.093 116.731C193.514 117.002 192.85 117.137 192.099 117.137L192.45 116.381C193.262 116.381 193.982 116.516 194.609 116.787C195.237 117.045 195.723 117.433 196.068 117.95C196.425 118.466 196.603 119.1 196.603 119.851C196.603 120.958 196.166 121.826 195.292 122.453C194.419 123.069 193.133 123.376 191.435 123.376H184.753ZM187.725 121.124H191.213C191.988 121.124 192.573 121.001 192.967 120.755C193.373 120.497 193.576 120.091 193.576 119.537C193.576 118.995 193.373 118.596 192.967 118.337C192.573 118.066 191.988 117.931 191.213 117.931H187.503V115.753H190.696C191.422 115.753 191.976 115.63 192.358 115.384C192.751 115.125 192.948 114.738 192.948 114.221C192.948 113.716 192.751 113.341 192.358 113.095C191.976 112.837 191.422 112.707 190.696 112.707H187.725V121.124ZM204.094 123.376V110.455H209.964C211.367 110.455 212.604 110.726 213.674 111.268C214.745 111.797 215.582 112.541 216.185 113.501C216.788 114.461 217.089 115.599 217.089 116.916C217.089 118.22 216.788 119.359 216.185 120.331C215.582 121.29 214.745 122.041 213.674 122.583C212.604 123.112 211.367 123.376 209.964 123.376H204.094ZM207.085 120.921H209.816C210.678 120.921 211.422 120.761 212.05 120.441C212.69 120.109 213.182 119.642 213.527 119.039C213.883 118.436 214.062 117.728 214.062 116.916C214.062 116.091 213.883 115.384 213.527 114.793C213.182 114.19 212.69 113.729 212.05 113.409C211.422 113.076 210.678 112.91 209.816 112.91H207.085V120.921ZM222.094 115.661H228.315V117.986H222.094V115.661ZM222.316 120.977H229.349V123.376H219.344V110.455H229.109V112.855H222.316V120.977ZM235.424 123.376L229.849 110.455H233.08L237.953 121.9H236.051L240.998 110.455H243.97L238.377 123.376H235.424ZM247.799 115.661H254.02V117.986H247.799V115.661ZM248.021 120.977H255.053V123.376H245.049V110.455H254.813V112.855H248.021V120.977ZM257.433 123.376V110.455H260.423V120.94H266.902V123.376H257.433ZM274.632 123.598C273.611 123.598 272.663 123.432 271.79 123.099C270.928 122.767 270.178 122.3 269.538 121.697C268.91 121.094 268.418 120.386 268.061 119.574C267.716 118.762 267.544 117.876 267.544 116.916C267.544 115.956 267.716 115.07 268.061 114.258C268.418 113.446 268.916 112.738 269.556 112.135C270.196 111.532 270.947 111.065 271.808 110.732C272.669 110.4 273.605 110.234 274.614 110.234C275.635 110.234 276.57 110.4 277.419 110.732C278.281 111.065 279.025 111.532 279.653 112.135C280.293 112.738 280.791 113.446 281.148 114.258C281.505 115.058 281.683 115.944 281.683 116.916C281.683 117.876 281.505 118.768 281.148 119.592C280.791 120.404 280.293 121.112 279.653 121.715C279.025 122.306 278.281 122.767 277.419 123.099C276.57 123.432 275.641 123.598 274.632 123.598ZM274.614 121.051C275.192 121.051 275.721 120.952 276.201 120.755C276.693 120.558 277.124 120.275 277.493 119.906C277.862 119.537 278.145 119.1 278.342 118.596C278.551 118.091 278.656 117.531 278.656 116.916C278.656 116.301 278.551 115.741 278.342 115.236C278.145 114.732 277.862 114.295 277.493 113.926C277.136 113.556 276.712 113.273 276.22 113.076C275.727 112.88 275.192 112.781 274.614 112.781C274.035 112.781 273.5 112.88 273.008 113.076C272.528 113.273 272.103 113.556 271.734 113.926C271.365 114.295 271.076 114.732 270.867 115.236C270.67 115.741 270.571 116.301 270.571 116.916C270.571 117.519 270.67 118.079 270.867 118.596C271.076 119.1 271.359 119.537 271.716 119.906C272.085 120.275 272.516 120.558 273.008 120.755C273.5 120.952 274.035 121.051 274.614 121.051ZM283.931 123.376V110.455H289.523C290.68 110.455 291.677 110.646 292.514 111.028C293.35 111.397 293.997 111.932 294.452 112.633C294.907 113.335 295.135 114.172 295.135 115.144C295.135 116.104 294.907 116.934 294.452 117.636C293.997 118.337 293.35 118.879 292.514 119.26C291.677 119.629 290.68 119.814 289.523 119.814H285.592L286.921 118.466V123.376H283.931ZM286.921 118.799L285.592 117.377H289.357C290.28 117.377 290.969 117.18 291.425 116.787C291.88 116.393 292.108 115.845 292.108 115.144C292.108 114.43 291.88 113.876 291.425 113.483C290.969 113.089 290.28 112.892 289.357 112.892H285.592L286.921 111.471V118.799ZM297.27 123.376V110.455H300.26V123.376H297.27ZM303.326 123.376V110.455H305.8L313.423 119.758H312.223V110.455H315.177V123.376H312.722L305.08 114.073H306.28V123.376H303.326ZM324.473 123.598C323.451 123.598 322.51 123.438 321.648 123.118C320.799 122.786 320.055 122.318 319.415 121.715C318.787 121.112 318.295 120.404 317.938 119.592C317.594 118.78 317.421 117.888 317.421 116.916C317.421 115.944 317.594 115.052 317.938 114.239C318.295 113.427 318.794 112.72 319.433 112.117C320.073 111.514 320.824 111.052 321.685 110.732C322.547 110.4 323.494 110.234 324.528 110.234C325.672 110.234 326.7 110.425 327.61 110.806C328.533 111.188 329.309 111.741 329.936 112.467L328.017 114.239C327.549 113.747 327.038 113.384 326.485 113.15C325.931 112.904 325.328 112.781 324.676 112.781C324.048 112.781 323.476 112.88 322.959 113.076C322.442 113.273 321.993 113.556 321.611 113.926C321.242 114.295 320.953 114.732 320.744 115.236C320.547 115.741 320.449 116.301 320.449 116.916C320.449 117.519 320.547 118.073 320.744 118.577C320.953 119.082 321.242 119.525 321.611 119.906C321.993 120.275 322.436 120.558 322.94 120.755C323.457 120.952 324.023 121.051 324.639 121.051C325.229 121.051 325.802 120.958 326.355 120.774C326.921 120.577 327.469 120.251 327.998 119.795L329.696 121.955C328.995 122.484 328.177 122.89 327.241 123.173C326.318 123.456 325.395 123.598 324.473 123.598ZM326.964 121.567V116.713H329.696V121.955L326.964 121.567Z" fill="white"/>
<path d="M254.073 199.917H178.491V186.076H254.073V199.917Z" fill="#37BDCF"/>
<path d="M302.515 199.917H264.723V186.076H302.515V199.917Z" fill="#F78F45"/>
<path d="M363.269 199.917H311.219V186.076H363.269V199.917Z" fill="white"/>
<path d="M213.767 224.629H178.491V210.788H213.767V224.629Z" fill="#37BDCF"/>
<path d="M283.619 224.629H223.365V210.788H283.619V224.629Z" fill="#F78F45"/>
<path d="M363.269 224.629H293.437V210.788H363.269V224.629Z" fill="white"/>
<path d="M224.925 249.341H178.491V235.5H224.925V249.341Z" fill="#37BDCF"/>
<path d="M319.833 249.341H232.484V235.5H319.833V249.341Z" fill="#F78F45"/>
<path d="M363.269 249.341H329.193V235.5H363.269V249.341Z" fill="white"/>
<path d="M237.044 274.053H178.491V260.212H237.044V274.053Z" fill="#37BDCF"/>
<path d="M302.515 274.053H245.683V260.212H302.515V274.053Z" fill="#F78F45"/>
<path d="M363.269 274.053H311.219V260.212H363.269V274.053Z" fill="white"/>
<path d="M204.167 298.765H178.491V284.924H204.167V298.765Z" fill="#37BDCF"/>
<path d="M263.68 298.765H212.807V284.924H263.68V298.765Z" fill="#F78F45"/>
<path d="M363.269 298.765H271.6V284.924H363.269V298.765Z" fill="white"/>
<path d="M251.921 323.477H178.491V309.636H251.921V323.477Z" fill="#37BDCF"/>
<path d="M283.619 323.477H261.041V309.636H283.619V323.477Z" fill="#F78F45"/>
<path d="M363.269 323.477H293.437V309.636H363.269V323.477Z" fill="white"/>
<path d="M274.099 348.191H178.491V334.348H274.099V348.191Z" fill="#37BDCF"/>
<path d="M321.273 348.191H282.159V334.348H321.273V348.191Z" fill="#F78F45"/>
<path d="M363.269 348.191H329.193V334.348H363.269V348.191Z" fill="white"/>
<path d="M207.767 372.901H178.491V359.06H207.767V372.901Z" fill="#37BDCF"/>
<path d="M251.921 372.901H216.281V359.06H251.921V372.901Z" fill="#F78F45"/>
<path d="M363.269 372.901H261.041V359.06H363.269V372.901Z" fill="white"/>
<path d="M376.192 372.901H373.376V186.076H376.192V372.901Z" fill="white"/>
<path d="M161.643 192.997C161.643 196.819 158.544 199.917 154.723 199.917C150.9 199.917 147.801 196.819 147.801 192.997C147.801 189.175 150.9 186.076 154.723 186.076C158.544 186.076 161.643 189.175 161.643 192.997Z" fill="white"/>
<path d="M161.643 217.708C161.643 221.531 158.544 224.629 154.723 224.629C150.9 224.629 147.801 221.531 147.801 217.708C147.801 213.887 150.9 210.788 154.723 210.788C158.544 210.788 161.643 213.887 161.643 217.708Z" fill="white"/>
<path d="M161.643 242.421C161.643 246.243 158.544 249.341 154.723 249.341C150.9 249.341 147.801 246.243 147.801 242.421C147.801 238.599 150.9 235.5 154.723 235.5C158.544 235.5 161.643 238.599 161.643 242.421Z" fill="white"/>
<path d="M161.643 267.133C161.643 270.955 158.544 274.053 154.723 274.053C150.9 274.053 147.801 270.955 147.801 267.133C147.801 263.309 150.9 260.212 154.723 260.212C158.544 260.212 161.643 263.309 161.643 267.133Z" fill="white"/>
<path d="M161.643 291.844C161.643 295.667 158.544 298.765 154.723 298.765C150.9 298.765 147.801 295.667 147.801 291.844C147.801 288.023 150.9 284.924 154.723 284.924C158.544 284.924 161.643 288.023 161.643 291.844Z" fill="white"/>
<path d="M161.643 316.557C161.643 320.379 158.544 323.477 154.723 323.477C150.9 323.477 147.801 320.379 147.801 316.557C147.801 312.735 150.9 309.636 154.723 309.636C158.544 309.636 161.643 312.735 161.643 316.557Z" fill="white"/>
<path d="M161.643 341.268C161.643 345.091 158.544 348.191 154.723 348.191C150.9 348.191 147.801 345.091 147.801 341.268C147.801 337.447 150.9 334.348 154.723 334.348C158.544 334.348 161.643 337.447 161.643 341.268Z" fill="white"/>
<path d="M161.643 365.98C161.643 369.804 158.544 372.901 154.723 372.901C150.9 372.901 147.801 369.804 147.801 365.98C147.801 362.159 150.9 359.06 154.723 359.06C158.544 359.06 161.643 362.159 161.643 365.98Z" fill="white"/>
<path d="M379.715 117.733C379.715 121.632 376.555 124.792 372.656 124.792C368.756 124.792 365.596 121.632 365.596 117.733C365.596 113.835 368.756 110.675 372.656 110.675C376.555 110.675 379.715 113.835 379.715 117.733Z" fill="#D82B62"/>
<path d="M362.265 117.591C362.265 121.52 359.081 124.704 355.153 124.704C351.224 124.704 348.04 121.52 348.04 117.591C348.04 113.664 351.224 110.479 355.153 110.479C359.081 110.479 362.265 113.664 362.265 117.591Z" fill="white"/>
<path d="M450.299 154.092H425.389V147.113H450.299V154.092Z" fill="#3C5282"/>
<path d="M501.593 141.667H425.389V134.688H501.593V141.667Z" fill="#5C5E94"/>
<path d="M468.749 158.088H470.083V155.421H468.749V158.088Z" fill="#F36241"/>
<path d="M468.749 167.091H470.083V162.59H468.749V167.091ZM468.749 176.095H470.083V171.592H468.749V176.095Z" fill="#F36241"/>
<path d="M468.749 180.596V183.929H472.083V182.596H470.083V180.596H468.749Z" fill="#F36241"/>
<path d="M477.161 183.929H482.24V182.596H477.161V183.929ZM487.319 183.929H492.397V182.596H487.319V183.929ZM497.476 183.929H502.556V182.596H497.476V183.929ZM507.635 183.929H512.713V182.596H507.635V183.929ZM517.792 183.929H522.871V182.596H517.792V183.929ZM527.949 183.929H533.028V182.596H527.949V183.929ZM538.107 183.929H543.185V182.596H538.107V183.929ZM548.264 183.929H553.343V182.596H548.264V183.929Z" fill="#F36241"/>
<path d="M558.421 183.929H561.755V180.596H560.421V182.596H558.421V183.929Z" fill="#F36241"/>
<path d="M560.421 175.187H561.755V169.777H560.421V175.187Z" fill="#F36241"/>
<path d="M560.421 164.368H561.755V161.701H560.421V164.368Z" fill="#F36241"/>
<path d="M435.659 115.983C434.332 115.983 433.096 115.77 431.949 115.344C430.819 114.902 429.836 114.28 429.001 113.477C428.166 112.675 427.51 111.733 427.035 110.652C426.577 109.571 426.348 108.383 426.348 107.089C426.348 105.795 426.577 104.608 427.035 103.527C427.51 102.446 428.166 101.504 429.001 100.701C429.853 99.8988 430.844 99.2846 431.974 98.8587C433.104 98.4165 434.341 98.1953 435.684 98.1953C437.174 98.1953 438.517 98.4574 439.713 98.9815C440.925 99.4893 441.941 100.243 442.76 101.242L440.204 103.6C439.615 102.929 438.96 102.429 438.239 102.102C437.518 101.758 436.732 101.586 435.88 101.586C435.078 101.586 434.341 101.717 433.669 101.979C432.997 102.241 432.416 102.618 431.925 103.109C431.433 103.6 431.048 104.182 430.77 104.854C430.508 105.525 430.377 106.27 430.377 107.089C430.377 107.908 430.508 108.654 430.77 109.325C431.048 109.997 431.433 110.578 431.925 111.069C432.416 111.561 432.997 111.938 433.669 112.2C434.341 112.462 435.078 112.593 435.88 112.593C436.732 112.593 437.518 112.429 438.239 112.101C438.96 111.757 439.615 111.241 440.204 110.554L442.76 112.912C441.941 113.911 440.925 114.673 439.713 115.197C438.517 115.721 437.166 115.983 435.659 115.983ZM451.002 115.983C449.626 115.983 448.308 115.803 447.047 115.443C445.785 115.066 444.77 114.583 444 113.993L445.351 110.996C446.088 111.52 446.957 111.954 447.956 112.298C448.971 112.625 449.995 112.789 451.027 112.789C451.813 112.789 452.444 112.716 452.919 112.568C453.41 112.404 453.77 112.183 454 111.905C454.229 111.626 454.344 111.307 454.344 110.947C454.344 110.488 454.163 110.128 453.803 109.866C453.443 109.587 452.968 109.366 452.378 109.202C451.788 109.022 451.133 108.858 450.413 108.711C449.708 108.547 448.996 108.35 448.275 108.121C447.571 107.892 446.924 107.597 446.334 107.237C445.744 106.876 445.261 106.401 444.885 105.812C444.524 105.222 444.344 104.469 444.344 103.551C444.344 102.569 444.606 101.676 445.13 100.873C445.671 100.054 446.473 99.4074 447.538 98.9324C448.619 98.441 449.97 98.1953 451.592 98.1953C452.673 98.1953 453.738 98.3264 454.786 98.5884C455.834 98.8341 456.76 99.2108 457.562 99.7186L456.334 102.741C455.531 102.282 454.729 101.946 453.926 101.733C453.123 101.504 452.337 101.389 451.567 101.389C450.797 101.389 450.167 101.479 449.676 101.66C449.184 101.84 448.832 102.077 448.619 102.372C448.406 102.651 448.3 102.978 448.3 103.355C448.3 103.797 448.48 104.157 448.84 104.436C449.201 104.698 449.676 104.911 450.265 105.075C450.855 105.238 451.502 105.402 452.206 105.566C452.927 105.73 453.639 105.918 454.344 106.131C455.064 106.344 455.719 106.631 456.309 106.991C456.899 107.351 457.374 107.826 457.734 108.416C458.111 109.006 458.299 109.751 458.299 110.652C458.299 111.618 458.029 112.503 457.488 113.305C456.948 114.108 456.137 114.755 455.056 115.246C453.991 115.738 452.64 115.983 451.002 115.983ZM466.67 115.983C465.294 115.983 463.975 115.803 462.714 115.443C461.453 115.066 460.437 114.583 459.668 113.993L461.019 110.996C461.756 111.52 462.624 111.954 463.623 112.298C464.639 112.625 465.662 112.789 466.694 112.789C467.481 112.789 468.111 112.716 468.586 112.568C469.077 112.404 469.438 112.183 469.667 111.905C469.896 111.626 470.011 111.307 470.011 110.947C470.011 110.488 469.831 110.128 469.471 109.866C469.11 109.587 468.635 109.366 468.046 109.202C467.456 109.022 466.801 108.858 466.08 108.711C465.376 108.547 464.663 108.35 463.943 108.121C463.238 107.892 462.591 107.597 462.002 107.237C461.412 106.876 460.929 106.401 460.552 105.812C460.192 105.222 460.012 104.469 460.012 103.551C460.012 102.569 460.274 101.676 460.798 100.873C461.338 100.054 462.141 99.4074 463.206 98.9324C464.287 98.441 465.638 98.1953 467.259 98.1953C468.34 98.1953 469.405 98.3264 470.453 98.5884C471.502 98.8341 472.427 99.2108 473.23 99.7186L472.001 102.741C471.199 102.282 470.396 101.946 469.593 101.733C468.791 101.504 468.005 101.389 467.235 101.389C466.465 101.389 465.834 101.479 465.343 101.66C464.852 101.84 464.499 102.077 464.287 102.372C464.074 102.651 463.967 102.978 463.967 103.355C463.967 103.797 464.147 104.157 464.508 104.436C464.868 104.698 465.343 104.911 465.933 105.075C466.522 105.238 467.169 105.402 467.874 105.566C468.594 105.73 469.307 105.918 470.011 106.131C470.732 106.344 471.387 106.631 471.977 106.991C472.566 107.351 473.041 107.826 473.402 108.416C473.778 109.006 473.967 109.751 473.967 110.652C473.967 111.618 473.696 112.503 473.156 113.305C472.615 114.108 471.805 114.755 470.724 115.246C469.659 115.738 468.308 115.983 466.67 115.983Z" fill="white"/>
<path d="M567.036 152.499C559.683 155.773 551.035 152.461 547.76 145.108C547.492 144.507 547.271 143.896 547.085 143.277C545.948 139.429 546.493 135.369 548.371 132.031L548.417 131.937C549.897 129.329 552.192 127.147 555.141 125.833C555.696 125.592 556.251 125.38 556.824 125.213L557 125.157C559.923 124.297 562.948 124.409 565.704 125.324L565.732 125.333C568.089 126.129 570.247 127.525 571.947 129.413C572.947 130.513 573.779 131.789 574.417 133.223C574.815 134.111 575.111 135.017 575.323 135.924C575.888 138.403 575.776 140.928 575.084 143.277C573.927 147.245 571.096 150.685 567.036 152.499ZM581.289 133.279C581.029 132.372 580.696 131.476 580.308 130.596C579.199 128.117 577.672 125.953 575.841 124.159C574.103 122.457 572.085 121.079 569.913 120.08L569.792 120.025C566.721 118.628 563.336 117.971 559.915 118.156C557.575 118.285 555.215 118.813 552.94 119.765C552.803 119.831 552.653 119.885 552.515 119.951C548.436 121.773 545.217 124.733 543.081 128.303C540.417 132.723 539.409 138.06 540.453 143.277C540.751 144.784 541.221 146.273 541.868 147.735C546.595 158.335 559.063 163.108 569.653 158.381C576.119 155.495 580.419 149.743 581.715 143.277C582.371 140.031 582.26 136.608 581.289 133.279Z" fill="#5C5E94"/>
<path d="M581.715 143.277H575.084C575.776 140.928 575.888 138.403 575.323 135.924C575.111 135.017 574.815 134.111 574.417 133.223C573.779 131.789 572.947 130.513 571.947 129.413C570.247 127.525 568.089 126.129 565.732 125.333L565.704 125.324C562.948 124.409 559.923 124.297 557 125.157L556.824 125.213C556.251 125.38 555.696 125.592 555.141 125.833C552.192 127.147 549.897 129.329 548.417 131.937L548.371 132.031C546.493 135.369 545.948 139.429 547.085 143.277H540.453C539.409 138.06 540.417 132.723 543.081 128.303C545.217 124.733 548.436 121.773 552.515 119.951C552.653 119.885 552.803 119.831 552.94 119.765C555.215 118.813 557.575 118.285 559.915 118.156C563.336 117.971 566.721 118.628 569.792 120.025L569.913 120.08C572.085 121.079 574.103 122.457 575.841 124.159C577.672 125.953 579.199 128.117 580.308 130.596C580.696 131.476 581.029 132.372 581.289 133.279C582.26 136.608 582.371 140.031 581.715 143.277Z" fill="#D82B62"/>
<path d="M501.593 154.092H455.291V147.113H501.593V154.092Z" fill="#5C5E94"/>
<path d="M76.0786 131.45C73.8954 131.45 72.2403 130.898 71.1135 129.795C69.9867 128.715 69.4232 127.165 69.4232 125.146V118.773C69.4232 118.209 69.2824 117.799 69.0007 117.54C68.719 117.259 68.3434 117.118 67.8738 117.118H66.7118V112.822H67.8738C68.3434 112.822 68.719 112.681 69.0007 112.399C69.2824 112.117 69.4232 111.707 69.4232 111.167V104.793C69.4232 102.751 69.9867 101.189 71.1135 100.11C72.2403 99.0296 73.8954 98.4897 76.0786 98.4897H78.121V102.786H77.4872C76.6421 102.786 75.9965 103.009 75.5504 103.455C75.1279 103.901 74.9166 104.546 74.9166 105.392V111.026C74.9166 112.059 74.7757 112.869 74.494 113.456C74.2123 114.042 73.7663 114.465 73.1559 114.723C72.569 114.981 71.806 115.169 70.867 115.287V114.653C71.806 114.747 72.569 114.935 73.1559 115.216C73.7663 115.474 74.2123 115.897 74.494 116.484C74.7757 117.071 74.9166 117.881 74.9166 118.914V124.548C74.9166 125.393 75.1279 126.039 75.5504 126.485C75.9965 126.931 76.6421 127.154 77.4872 127.154H78.121V131.45H76.0786ZM91.1793 131.45H89.1369V127.154H89.7707C90.6159 127.154 91.2497 126.931 91.6723 126.485C92.1183 126.039 92.3413 125.393 92.3413 124.548V118.914C92.3413 117.881 92.4822 117.071 92.7639 116.484C93.0691 115.897 93.5151 115.474 94.102 115.216C94.6889 114.935 95.4519 114.747 96.3909 114.653V115.287C95.4519 115.169 94.6889 114.981 94.102 114.723C93.5151 114.465 93.0691 114.042 92.7639 113.456C92.4822 112.869 92.3413 112.059 92.3413 111.026V105.392C92.3413 104.546 92.1183 103.901 91.6723 103.455C91.2497 103.009 90.6159 102.786 89.7707 102.786H89.1369V98.4897H91.1793C93.386 98.4897 95.0411 99.0296 96.1444 100.11C97.2713 101.189 97.8347 102.751 97.8347 104.793V111.167C97.8347 111.707 97.9755 112.117 98.2572 112.399C98.5389 112.681 98.9146 112.822 99.3841 112.822H100.546V117.118H99.3841C98.9146 117.118 98.5389 117.259 98.2572 117.54C97.9755 117.799 97.8347 118.209 97.8347 118.773V125.146C97.8347 127.165 97.2713 128.715 96.1444 129.795C95.0411 130.898 93.386 131.45 91.1793 131.45Z" fill="#262A41"/>
<path d="M92.0713 178.335H64.6855V165.265H92.0713V178.335Z" fill="white"/>
<path d="M92.0713 201.167H64.6855V188.097H92.0713V201.167Z" fill="white"/>
<path d="M92.0713 224H64.6855V210.931H92.0713V224Z" fill="#F78F45"/>
<path d="M92.0713 246.833H64.6855V233.764H92.0713V246.833Z" fill="#F78F45"/>
<path d="M92.0713 269.667H64.6855V256.597H92.0713V269.667Z" fill="#F78F45"/>
<path d="M92.0713 292.5H64.6855V279.431H92.0713V292.5Z" fill="#F78F45"/>
<path d="M92.0713 315.332H64.6855V302.263H92.0713V315.332Z" fill="#F78F45"/>
<path d="M846.327 431.392C841.129 431.392 836.917 427.18 836.917 421.981C836.917 416.785 841.129 412.573 846.327 412.573C851.524 412.573 855.736 416.785 855.736 421.981C855.736 427.18 851.524 431.392 846.327 431.392ZM865.988 422.255L866 421.981L865.988 421.721C867.353 421.092 868.729 420.368 870.083 419.491C871.529 418.493 873.001 417.343 874.365 416.025L874.069 414.863C873.784 413.545 873.275 412.276 872.811 411.007C872.549 410.389 872.243 409.784 871.945 409.179C871.672 408.549 871.34 407.969 870.972 407.399L870.356 406.377C868.492 406.391 866.605 406.628 864.884 406.948C863.331 407.268 861.824 407.731 860.423 408.264L860.043 407.885C860.565 406.473 861.04 404.977 861.349 403.423C861.681 401.703 861.917 399.816 861.929 397.953L860.911 397.336C860.34 396.969 859.748 396.637 859.131 396.364C858.525 396.067 857.919 395.757 857.291 395.497C856.021 395.033 854.763 394.524 853.447 394.24L852.284 393.943C850.967 395.308 849.815 396.767 848.817 398.227C847.94 399.568 847.216 400.944 846.587 402.32L846.327 402.297L846.053 402.32C845.436 400.944 844.7 399.568 843.823 398.227C842.839 396.767 841.676 395.308 840.369 393.943L839.207 394.24C837.877 394.524 836.62 395.033 835.351 395.497C834.733 395.757 834.128 396.067 833.511 396.364C832.895 396.637 832.312 396.969 831.731 397.336L830.711 397.953C830.735 399.816 830.972 401.703 831.293 403.423C831.612 404.977 832.076 406.473 832.609 407.885C832.479 408.016 832.348 408.135 832.231 408.264C830.817 407.731 829.323 407.268 827.768 406.948C826.048 406.628 824.148 406.391 822.299 406.377L821.669 407.399C821.312 407.969 820.98 408.549 820.696 409.179C820.412 409.784 820.103 410.389 819.841 411.007C819.367 412.276 818.868 413.545 818.584 414.863L818.288 416.025C819.652 417.343 821.112 418.493 822.571 419.491C823.912 420.368 825.288 421.092 826.652 421.721L826.64 421.981L826.652 422.255C825.288 422.872 823.912 423.608 822.571 424.485C821.112 425.471 819.652 426.633 818.288 427.939L818.584 429.101C818.868 430.42 819.367 431.689 819.841 432.959C820.103 433.576 820.412 434.18 820.696 434.797C820.98 435.415 821.312 435.996 821.669 436.565L822.299 437.587C824.148 437.575 826.048 437.336 827.768 437.016C829.323 436.696 830.817 436.233 832.231 435.699C832.348 435.829 832.479 435.96 832.609 436.08C832.076 437.491 831.612 438.985 831.293 440.54C830.972 442.26 830.735 444.159 830.711 446.011L831.731 446.64C832.312 446.995 832.895 447.328 833.511 447.6C834.128 447.897 834.733 448.205 835.351 448.468C836.62 448.941 837.877 449.44 839.207 449.724L840.369 450.021C841.676 448.656 842.839 447.197 843.823 445.737C844.7 444.397 845.436 443.02 846.053 441.644L846.327 441.668L846.587 441.644C847.216 443.02 847.94 444.397 848.817 445.737C849.815 447.197 850.967 448.656 852.284 450.021L853.447 449.724C854.763 449.44 856.021 448.941 857.291 448.468C857.919 448.205 858.525 447.897 859.131 447.6C859.748 447.328 860.34 446.995 860.911 446.64L861.929 446.011C861.917 444.159 861.681 442.26 861.349 440.54C861.04 438.985 860.565 437.491 860.043 436.08C860.175 435.96 860.293 435.829 860.423 435.699C861.824 436.233 863.331 436.696 864.884 437.016C866.605 437.336 868.492 437.575 870.356 437.587L870.972 436.565C871.34 435.996 871.672 435.415 871.945 434.797C872.243 434.18 872.549 433.576 872.811 432.959C873.275 431.689 873.784 430.42 874.069 429.101L874.365 427.939C873.001 426.633 871.529 425.471 870.083 424.485C868.729 423.608 867.353 422.872 865.988 422.255Z" fill="#262A41"/>
<path d="M779.519 443.267H767.095V387.309H779.519V443.267Z" fill="#D82B62"/>
<path d="M762.085 443.267H748.768V411.965H762.085V443.267Z" fill="#5C5E94"/>
<path d="M743.639 443.267H730.32V421.981H743.639V443.267Z" fill="#F36241"/>
<path d="M725.299 435.02H727.965V433.687H725.299V435.02Z" fill="#F36241"/>
<path d="M711.775 435.02H718.536V433.687H711.775V435.02Z" fill="#F36241"/>
<path d="M705.015 433.687H701.681V437.02H703.015V435.02H705.015V433.687Z" fill="#F36241"/>
<path d="M701.681 446.995H703.015V442.008H701.681V446.995ZM701.681 456.969H703.015V451.983H701.681V456.969ZM701.681 466.944H703.015V461.957H701.681V466.944ZM701.681 476.919H703.015V471.932H701.681V476.919Z" fill="#F36241"/>
<path d="M701.681 481.907V485.24H705.015V483.907H703.015V481.907H701.681Z" fill="#F36241"/>
<path d="M709.541 485.24H714.069V483.907H709.541V485.24ZM718.597 485.24H723.125V483.907H718.597V485.24Z" fill="#F36241"/>
<path d="M727.652 485.24H730.319V483.907H727.652V485.24Z" fill="#F36241"/>
<path d="M769.777 488.384H734.537V482.087H769.777V488.384Z" fill="white"/>
<path d="M758.912 500.036H734.537V493.739H758.912V500.036Z" fill="white"/>
<path d="M765.389 511.689H734.537V505.391H765.389V511.689Z" fill="white"/>
<path d="M778.973 511.689H771.772V505.391H778.973V511.689Z" fill="#F78F45"/>
<path d="M812.076 511.689H785.577V505.391H812.076V511.689Z" fill="#F78F45"/>
<path d="M812.076 500.036H766.723V493.739H812.076V500.036Z" fill="#F78F45"/>
<path d="M812.076 488.384H776.836V482.087H812.076V488.384Z" fill="#F78F45"/>
<path d="M932.923 429.648H909.704V418.568H932.923V429.648Z" fill="#D82B62"/>
<path d="M932.923 449.008H909.704V437.927H932.923V449.008Z" fill="#D82B62"/>
<path d="M932.923 468.367H909.704V457.287H932.923V468.367Z" fill="#D82B62"/>
<path d="M932.923 487.725H909.704V476.644H932.923V487.725Z" fill="#D82B62"/>
<path d="M932.923 507.085H909.704V496.004H932.923V507.085Z" fill="white"/>
<path d="M932.923 526.444H909.704V515.364H932.923V526.444Z" fill="white"/>
<path d="M932.923 545.803H909.704V534.721H932.923V545.803Z" fill="white"/>
<path d="M831.688 577.555C823.009 578.208 815.745 576.145 809.676 572.379C785.181 557.221 780.072 514.473 779.719 511.261C779.933 512.248 782.348 517.475 807.807 534.601C809.925 536.031 811.865 537.48 813.636 538.947L813.729 539.017C835.915 557.391 831.688 577.555 831.688 577.555Z" fill="#098B73"/>
<path d="M779.083 511.324C779.091 511.343 784.817 525.397 793.737 540.219C798.199 547.629 803.456 555.232 809.217 561.377C814.98 567.519 821.244 572.224 827.795 573.756L828.096 572.457C821.961 571.036 815.851 566.511 810.189 560.465C801.692 551.405 794.207 538.981 788.865 528.832C786.193 523.759 784.055 519.252 782.585 516.016C781.851 514.397 781.283 513.097 780.9 512.203C780.516 511.308 780.319 510.823 780.317 510.821L779.083 511.324Z" fill="#0B7259"/>
<path d="M828.545 577.674C821.237 577.674 814.997 575.683 809.676 572.379C810.681 569.999 811.44 567.179 812.012 564.2C816.985 568.938 822.288 572.469 827.795 573.756L828.096 572.457C822.715 571.211 817.353 567.576 812.296 562.623C814.161 551.513 813.636 538.947 813.636 538.947L813.729 539.017C816.023 540.917 818.035 542.835 819.797 544.749C820.095 549.731 821.081 554.069 822.484 557.813H822.489C824.891 564.221 828.509 568.885 831.98 572.04C832 572.52 832.009 572.972 832.009 573.397C832.011 576.015 831.688 577.555 831.688 577.555C830.619 577.636 829.571 577.674 828.545 577.674Z" fill="#0A7E66"/>
<path d="M827.795 573.756C822.288 572.469 816.985 568.938 812.012 564.2C812.112 563.679 812.207 563.152 812.296 562.623C817.353 567.576 822.715 571.211 828.096 572.457L827.795 573.756Z" fill="#0B7259"/>
<path d="M896.7 514.385C896.604 514.983 896.261 517.056 895.577 520.108V520.119C891.964 536.303 878.92 579.848 843.828 575.483C843.828 575.483 843.236 571.747 844.42 566.156C846.156 557.936 851.736 545.7 868.709 535.438C893.899 520.205 896.445 515.315 896.7 514.385Z" fill="#098B73"/>
<path d="M894.956 517.603C894.956 517.603 894.888 517.777 894.751 518.119C893.716 520.671 888.792 532.319 880.496 544.408C872.204 556.504 860.533 569.007 846.132 573.381L846.521 574.657C862.401 569.808 874.773 555.637 883.225 542.728C891.673 529.811 896.189 518.109 896.2 518.083L894.956 517.603Z" fill="#0B7259"/>
<path d="M848.661 575.789C847.097 575.789 845.491 575.689 843.828 575.483C843.828 575.483 843.74 574.928 843.7 573.926C845.168 571.271 846.533 568.667 847.793 566.124C861.004 565.164 872.541 554.52 880.971 543.711C880.815 543.943 880.656 544.174 880.496 544.408C872.204 556.504 860.533 569.007 846.132 573.381L846.521 574.657C862.401 569.808 874.773 555.637 883.225 542.728C887.952 535.501 891.447 528.656 893.611 524.023C894.896 521.589 895.577 520.108 895.577 520.108V520.119C892.135 535.536 880.129 575.789 848.661 575.789Z" fill="#0A7E66"/>
<path d="M846.521 574.657L846.132 573.381C860.533 569.007 872.204 556.504 880.496 544.408C880.656 544.174 880.815 543.943 880.971 543.711C886.876 536.137 891.256 528.483 893.611 524.023C891.447 528.656 887.952 535.501 883.225 542.728C874.773 555.637 862.401 569.808 846.521 574.657Z" fill="#0B7259"/>
<path d="M841.944 577.038C841.077 578.545 828.263 573.221 822.489 557.813H822.484C819.017 548.559 818.093 535.664 823.821 518.433C838.871 473.184 832.668 464.652 832.484 464.413C832.787 464.556 845.864 471.049 854.299 486.849L854.333 486.911C863.609 504.339 867.229 533.06 841.944 577.038Z" fill="#02A987"/>
<path d="M831.956 464.821L831.989 464.865C832.74 465.844 845.659 483.111 845.659 515.391C845.659 521.735 845.16 528.661 843.971 536.16C840.693 556.821 839.768 567.215 839.767 572.436C839.769 574.525 839.911 575.787 840.141 576.604C840.26 577.013 840.397 577.32 840.608 577.571C840.811 577.82 841.149 577.997 841.463 577.989C841.839 577.981 842.073 577.815 842.224 577.699C842.375 577.575 842.455 577.468 842.475 577.442L841.413 576.636L841.644 576.812L841.42 576.626L841.413 576.636L841.644 576.812L841.42 576.626L841.375 576.669L841.376 576.671L841.463 576.881V576.656L841.376 576.671L841.463 576.881V576.656V576.938L841.589 576.685L841.463 576.656V576.938L841.589 576.685L841.505 576.854L841.62 576.704L841.589 576.685L841.505 576.854L841.62 576.704L841.595 576.735L841.625 576.708L841.62 576.704L841.595 576.735L841.625 576.708C841.603 576.699 841.423 576.408 841.308 575.728C841.187 575.048 841.1 573.992 841.1 572.436C841.099 567.362 842.013 556.995 845.287 536.369C846.488 528.801 846.992 521.805 846.992 515.391C846.993 481.691 833.063 464.071 833 463.993L831.956 464.821Z" fill="#098B73"/>
<path d="M840.341 577.149C838.488 576.693 835.303 575.059 831.98 572.04C828.509 568.885 824.891 564.221 822.489 557.813C824.239 558.311 825.895 558.547 827.456 558.547C833.609 558.547 838.352 554.903 842.008 549.257C840.304 561.483 839.768 568.46 839.767 572.436C839.769 574.525 839.911 575.787 840.141 576.604C840.2 576.809 840.265 576.989 840.341 577.149ZM841.944 577.038L841.576 576.76L841.644 576.812L841.579 576.757L841.596 576.735L841.625 576.708L841.62 576.704L841.619 576.703C841.581 576.664 841.416 576.369 841.308 575.728C841.187 575.048 841.1 573.992 841.1 572.436C841.099 568.242 841.724 560.428 843.791 546.192C854.541 525.685 854.299 486.849 854.299 486.849L854.333 486.911C858.355 494.467 861.313 504.147 861.315 516.273C861.315 529.731 857.672 546.199 847.793 566.124C846.533 568.667 845.168 571.271 843.7 573.926C843.131 574.956 842.545 575.992 841.944 577.038Z" fill="#049C7F"/>
<path d="M841.273 577.284C841.021 577.284 840.707 577.24 840.341 577.149C840.265 576.989 840.2 576.809 840.141 576.604C839.911 575.787 839.769 574.525 839.767 572.436C839.768 568.46 840.304 561.483 842.008 549.257C842.633 548.291 843.227 547.267 843.791 546.192C841.724 560.428 841.099 568.242 841.1 572.436C841.1 573.992 841.187 575.048 841.308 575.728C841.416 576.369 841.581 576.664 841.619 576.703L841.62 576.704L841.625 576.708L841.596 576.735L841.579 576.757L841.644 576.812L841.576 576.76L841.944 577.038C841.851 577.201 841.619 577.284 841.273 577.284ZM841.463 576.661V576.656V576.661Z" fill="#098B73"/>
<path d="M779.697 511.073L779.713 511.231L779.697 511.073Z" fill="#098B73"/>
<path d="M866.78 576.365V612.535C866.78 623.117 858.203 631.695 847.621 631.695H830.611C823.684 631.695 817.613 628.019 814.251 622.505H814.245C812.472 619.6 811.452 616.185 811.452 612.535V576.365H866.78Z" fill="#F78F45"/>
<path d="M868.791 571.673H809.443C808.663 571.673 808.031 572.307 808.031 573.087V574.954C808.031 575.733 808.663 576.365 809.443 576.365H868.791C869.571 576.365 870.203 575.735 870.203 574.954V573.087C870.203 572.307 869.571 571.673 868.791 571.673Z" fill="#F78F45"/>
<path d="M866.78 576.365V612.535C866.78 623.117 858.203 631.695 847.621 631.695H830.611C823.684 631.695 817.613 628.019 814.251 622.505C854.773 635.232 863.575 605.433 862.007 593.616C860.445 581.799 845.844 576.365 845.844 576.365H866.78Z" fill="#F57819"/>
</g>
<defs>
<clipPath id="clip0_0_1">
<rect width="1000" height="668.307" fill="white"/>
</clipPath>
</defs>
</svg>
