<svg width="122" height="70" viewBox="0 0 122 70" fill="none" xmlns="http://www.w3.org/2000/svg">
<path d="M11.5682 70H0.386364L25.5114 0.181816H37.6818L62.8068 70H51.625L31.8864 12.8636H31.3409L11.5682 70ZM13.4432 42.6591H49.7159V51.5227H13.4432V42.6591ZM72.8892 70V0.181816H97.7756C103.207 0.181816 107.707 1.17045 111.276 3.14772C114.844 5.125 117.514 7.82954 119.287 11.2614C121.06 14.6705 121.946 18.5114 121.946 22.7841C121.946 27.0795 121.048 30.9432 119.253 34.375C117.48 37.7841 114.798 40.4886 111.207 42.4886C107.639 44.4659 103.151 45.4545 97.7415 45.4545H80.6278V36.5227H96.7869C100.219 36.5227 103.003 35.9318 105.139 34.75C107.276 33.5455 108.844 31.9091 109.844 29.8409C110.844 27.7727 111.344 25.4205 111.344 22.7841C111.344 20.1477 110.844 17.8068 109.844 15.7614C108.844 13.7159 107.264 12.1136 105.105 10.9545C102.969 9.79545 100.151 9.21591 96.6506 9.21591H83.4233V70H72.8892Z" fill="#93C5FD"/>
</svg>
